<svg width="284" height="53" viewBox="0 0 284 53" fill="none" xmlns="http://www.w3.org/2000/svg">
<g clip-path="url(#clip0_159_482)">
<path d="M33.7087 53.0005C47.3204 53.0005 58.3549 41.9922 58.3549 28.4128C58.3549 14.8335 47.3204 3.8252 33.7087 3.8252C20.097 3.8252 9.0625 14.8335 9.0625 28.4128C9.0625 41.9922 20.097 53.0005 33.7087 53.0005Z" fill="#FAFAFA"/>
<path d="M52.3272 25.135C52.3272 37.2446 42.4804 46.9906 30.4194 46.9906C18.3585 46.9906 8.51172 37.2446 8.51172 25.135C8.51172 13.0255 18.3585 3.2793 30.4194 3.2793C42.4804 3.2793 52.3272 13.0255 52.3272 25.135Z" fill="#E44332" stroke="#FAFAFA" stroke-width="2"/>
<path d="M40.4547 32.1952C38.9141 34.3679 36.7104 35.9852 34.1725 36.8055C31.6347 37.6258 28.8989 37.6051 26.3739 36.7465C23.8488 35.8878 21.6699 34.2373 20.1625 32.0415C18.6552 29.8457 17.9003 27.2223 18.0106 24.5632C18.1209 21.9041 19.0904 19.3519 20.7745 17.2878C22.4585 15.2238 24.7666 13.7585 27.3542 13.1109C29.9417 12.4633 32.6698 12.6681 35.131 13.6948C37.5923 14.7215 39.6546 16.5148 41.01 18.8071L30.3622 25.0731L40.4547 32.1952Z" fill="white"/>
<path d="M82.9241 40.4326V33.3732H76.6804V21.175H83.7566V14.479H76.6804V8.19824H72.1537L68.4595 14.6866L63.1523 17.0225V21.175H67.7311V30.2069C67.7311 36.9029 70.2285 40.4326 78.1893 40.4326H82.9241ZM100.523 41.2631C111.553 41.2631 115.455 34.4114 115.455 27.4558C115.455 20.5003 111.553 13.6485 100.523 13.6485C89.492 13.6485 85.6417 20.5003 85.6417 27.4558C85.6417 34.4633 89.492 41.2631 100.523 41.2631ZM94.591 27.4558C94.591 22.2651 96.256 20.6041 100.523 20.6041C104.789 20.6041 106.454 22.2651 106.454 27.4558C106.454 32.6465 104.789 34.3076 100.523 34.3076C96.256 34.3076 94.591 32.6465 94.591 27.4558ZM137.252 13.6485C132.83 13.6485 129.864 15.2576 128.095 18.0087V14.479H119.146V50.8141H128.095V36.7991C129.864 39.6021 132.83 41.2631 137.252 41.2631C145.786 41.2631 149.168 34.7228 149.168 27.5077C149.168 20.0331 145.786 13.6485 137.252 13.6485ZM134.235 34.3076C129.656 34.3076 128.095 32.0756 128.095 27.4558C128.095 22.8361 129.656 20.6041 134.235 20.6041C138.657 20.6041 140.218 22.6284 140.218 27.4558C140.218 32.2832 138.657 34.3076 134.235 34.3076ZM188.628 13.6485C183.894 13.6485 181.032 15.9324 179.419 19.4102C178.118 15.7767 175.308 13.6485 170.834 13.6485C166.359 13.6485 163.601 15.6729 161.989 18.8911V14.479H153.039V40.4326H161.989V28.2344C161.989 23.1475 163.653 20.8636 167.14 20.8636C170.105 20.8636 171.406 22.6804 171.406 26.0024V40.4326H180.199V28.2344C180.199 23.1475 181.812 20.8636 185.35 20.8636C188.316 20.8636 189.617 22.6804 189.617 26.0024V40.4326H198.566V24.6528C198.566 17.853 195.444 13.6485 188.628 13.6485ZM211.354 41.1074C216.609 41.1074 219.835 38.8235 221.136 35.0343C221.136 37.1625 221.292 38.9273 221.552 40.4326H229.253C228.941 38.3044 228.785 36.0205 228.785 33.2694V22.9399C228.785 17.0225 224.726 13.6485 216.505 13.6485C208.284 13.6485 203.498 17.5934 203.237 23.0956H211.927C211.979 20.8117 213.488 19.5659 216.609 19.5659C219.575 19.5659 220.512 20.5003 220.512 22.0575C220.512 23.4071 219.887 24.0299 217.494 24.4452L211.614 25.4833C204.434 26.6772 202.717 29.4283 202.717 33.5809C202.717 38.1487 206.151 41.1074 211.354 41.1074ZM214.736 35.2938C212.915 35.2938 211.51 34.3595 211.51 32.5427C211.51 30.7779 212.447 29.8955 214.944 29.2726L216.453 28.9092C218.066 28.494 219.263 28.1825 220.512 27.2482V28.2344C220.512 32.9061 218.118 35.2938 214.736 35.2938ZM251.161 40.4326V33.3732H244.917V21.175H251.993V14.479H244.917V8.19824H240.39L236.696 14.6866L231.389 17.0225V21.175H235.968V30.2069C235.968 36.9029 238.465 40.4326 246.426 40.4326H251.161ZM268.446 35.2938C265.116 35.2938 263.087 33.8923 262.567 29.7397H282.078C282.183 29.1688 282.235 28.3901 282.235 27.5596C282.235 20.3445 278.853 13.6485 268.238 13.6485C258.248 13.6485 253.878 19.8774 253.878 27.4039C253.878 34.5152 257.624 41.2631 268.238 41.2631C277.708 41.2631 281.246 37.0587 282.131 32.5946H273.441C272.713 34.1518 271.1 35.2938 268.446 35.2938ZM268.342 19.514C271.828 19.514 273.441 21.2789 273.754 24.549H262.671C263.243 20.8117 265.116 19.514 268.342 19.514Z" fill="white"/>
</g>
<defs>
<clipPath id="clip0_159_482">
<rect width="284" height="53" fill="white"/>
</clipPath>
</defs>
</svg>
