<svg width="93" height="99" viewBox="0 0 93 99" fill="none" xmlns="http://www.w3.org/2000/svg">
<g clip-path="url(#clip0_180_567)">
<path d="M47.6523 99.0002C72.8503 99.0002 93.2773 78.4376 93.2773 53.0724C93.2773 27.7071 72.8503 7.14453 47.6523 7.14453C22.4544 7.14453 2.02734 27.7071 2.02734 53.0724C2.02734 78.4376 22.4544 99.0002 47.6523 99.0002Z" fill="#FAFAFA"/>
<path d="M82.1248 46.9483C82.1248 69.5681 63.8965 87.773 41.5691 87.773C19.2421 87.773 1.01367 69.5681 1.01367 46.9483C1.01367 24.3287 19.2421 6.12354 41.5691 6.12354C63.8965 6.12354 82.1248 24.3287 82.1248 46.9483Z" fill="#E44332" stroke="#FAFAFA" stroke-width="2"/>
<path d="M60.1385 60.1377C57.2865 64.1962 53.2069 67.2173 48.5088 68.7494C43.8108 70.2817 38.7464 70.243 34.072 68.6392C29.3975 67.0353 25.364 63.9523 22.5736 59.8506C19.7832 55.7491 18.3857 50.8488 18.5899 45.8817C18.7941 40.9148 20.5889 36.1475 23.7064 32.2919C26.8239 28.4364 31.0967 25.6994 35.8867 24.4898C40.6767 23.2801 45.727 23.6627 50.2832 25.5804C54.8396 27.4982 58.6573 30.848 61.1664 35.1298L41.4552 46.8342L60.1385 60.1377Z" fill="white"/>
</g>
<defs>
<clipPath id="clip0_180_567">
<rect width="93" height="99" fill="white"/>
</clipPath>
</defs>
</svg>
